:SAMPLES-PER-SECOND 30
:FULLY-SPECIFIED
:DEGREES
207
root  -58.8922 30.5232 37.9856 -158.329 38.9475 -177.687
RightUpLeg  -30.5834 -17.753 -17.059
RightLeg  39.4642 -5.7922 -4.17985
RightFoot  -7.10744 0.0941584 1.89379
RightToes  -37.0095 -0.195045 -0.297613
Spine  12.644 2.81785 -1.82817
Spine1  21.373 7.26901 -4.0551
HEad  0.146415 -20.6474 29.3981
LeftShoulder1  0 -2.42657e-020 -4.95415e-022
LeftArm  -19.0562 -18.5984 -80.1825
LeftForeArm  76.9116 -78.1825 -58.2502
LeftHand  0.625329 -7.41426 -10.0079
RightShoulder  0 2.42657e-020 1.07489e-018
RightArm  -33.6151 14.8405 89.651
RightForeArm  42.2353 23.6477 4.40964
RightHand  0.226861 25.3269 1.37999
LeftUpLeg  -46.6511 6.52268 13.4552
LeftLeg  50.1854 -8.42896 -8.7893
LeftFoot  -9.1449 0.109485 1.36893
LeftToes  -37.7558 8.63562e-007 1.17448e-007
208
root  -58.2402 30.0772 38.341 -158.475 40.7706 -177.38
RightUpLeg  -31.8155 -18.214 -19.7056
RightLeg  37.9999 -6.24804 -4.26568
RightFoot  -4.65592 0.0554165 1.74091
RightToes  -35.9653 -0.187081 -0.291215
Spine  12.9987 2.74283 -1.27331
Spine1  21.9455 7.12254 -3.39213
HEad  -0.107792 -20.2295 28.9159
LeftShoulder1  0 -2.42657e-020 -4.95415e-022
LeftArm  -15.8071 -20.1594 -82.3432
LeftForeArm  72.372 -76.8471 -49.5274
LeftHand  0.396988 -7.6259 -6.32694
RightShoulder  0 2.42657e-020 1.07489e-018
RightArm  -35.7692 16.2931 88.3528
RightForeArm  41.0057 23.8083 4.44512
RightHand  -0.0256896 24.725 0.252865
LeftUpLeg  -46.5111 8.76251 14.6004
LeftLeg  52.5496 -8.19291 -9.27539
LeftFoot  -10.2939 0.133282 1.4796
LeftToes  -39.886 8.63562e-007 1.17448e-007
209
root  -57.5279 29.5324 38.7602 -159.045 41.6525 -177.646
RightUpLeg  -33.3878 -20.79 -21.943
RightLeg  38.1209 -7.10441 -4.86406
RightFoot  -0.656467 0.00590898 1.41047
RightToes  -35.7141 -0.185182 -0.289654
Spine  13.6242 2.2901 -0.5946
Spine1  22.9903 6.34763 -2.87017
HEad  -0.449124 -19.3172 27.8849
LeftShoulder1  0 -2.42657e-020 -4.95415e-022
LeftArm  -12.8496 -22.3738 -85.1657
LeftForeArm  62.7564 -73.1264 -35.8107
LeftHand  0.145414 -8.0893 -2.42829
RightShoulder  0 2.42657e-020 1.07489e-018
RightArm  -38.0386 18.6808 87.0358
RightForeArm  38.9099 23.9023 4.46749
RightHand  -0.215536 23.7228 -0.656351
LeftUpLeg  -46.6388 9.98269 15.8771
LeftLeg  54.8633 -7.8188 -9.60589
LeftFoot  -11.648 0.160229 1.57078
LeftToes  -40.957 8.63562e-007 1.17448e-007
210
root  -56.7815 28.8954 39.4048 -158.761 43.9149 -177.456
RightUpLeg  -37.8046 -21.5449 -22.825
RightLeg  40.6297 -7.29942 -5.47907
RightFoot  6.33702 -0.00483339 0.46481
RightToes  -38.2308 -0.204507 -0.304912
Spine  14.3285 2.16276 -0.112505
Spine1  24.0741 5.91967 -2.45877
HEad  -0.766655 -17.7884 26.4324
LeftShoulder1  0 -2.42657e-020 -4.95415e-022
LeftArm  -10.1853 -25.3198 -88.249
LeftForeArm  54.2617 -65.8537 -23.2632
LeftHand  -0.271096 -8.77819 3.16343
RightShoulder  0 2.42657e-020 1.07489e-018
RightArm  -40.0048 22.0553 85.9192
RightForeArm  37.039 23.6413 4.41437
RightHand  -0.453249 22.6877 -1.88952
LeftUpLeg  -46.7443 12.2511 17.6327
LeftLeg  57.1174 -7.42516 -9.89304
LeftFoot  -12.3221 0.152012 1.40813
LeftToes  -44.9705 8.63562e-007 1.17448e-007
211
root  -55.9188 28.1888 40.2499 -157.297 46.1051 -176.819
RightUpLeg  -44.3217 -22.815 -21.4698
RightLeg  44.3004 -2.72668 -2.36693
RightFoot  12.8384 -0.0338889 0.678728
RightToes  -41.5988 -0.23138 -0.323975
Spine  15.2274 1.6925 0.380888
Spine1  25.1863 4.13251 -1.09411
HEad  -1.63294 -16.1971 25.1606
LeftShoulder1  0 -2.42657e-020 -4.95415e-022
LeftArm  -8.32668 -29.5108 -91.2171
LeftForeArm  51.7808 -54.9085 -14.5475
LeftHand  -0.667319 -9.35343 7.77947
RightShoulder  0 2.42657e-020 1.07489e-018
RightArm  -42.4386 26.6953 85.3833
RightForeArm  34.7951 23.0136 4.28483
RightHand  -0.433288 21.9317 -1.86644
LeftUpLeg  -47.2621 14.3698 20.2357
LeftLeg  58.8455 -6.75268 -9.59961
LeftFoot  -13.5136 0.119896 1.01192
LeftToes  -46.708 8.63562e-007 1.17448e-007
